<svg xmlns="http://www.w3.org/2000/svg" viewBox="0 0 195.84 196.08">
  <rect width="195.84" height="196.08" fill="#fff"/>
  <g fill="#000">
    <path d="M62.24,67.33l.1,114.12h-30.47c-.06-37.94-.08-75.9-.05-113.86l.24-.17c-.05-.2,0-.36.17-.36,9.88-.02,20.01-.02,29.9-.02.18,0,.26.14.29.35Z"/>
    <polygon points="161.81 181.46 131.33 181.49 131.33 67.36 161.8 67.36"/>
    <path d="M111.86,10.28l.1,114.12h-30.23c-.04-37.95-.05-75.9-.03-113.86l.24-.17c-.05-.2,0-.36.17-.36,9.81-.02,19.86-.02,29.66-.02.18,0,.26.14.29.35Z"/>
  </g>
  <g fill="#eee">
    <path d="M81.74,9.59c.69.02.66.56,0,.72v114.1c-.28.04-.48.03-.48-.3V9.69c.23-.18.37-.1.48-.1Z"/>
    <path d="M31.88,66.64c.69.02.66.56,0,.72v114.1c-.48.02-.48-.12-.48-.54v-114.18c.23-.18.37-.1.48-.1Z"/>
  </g>
  <g fill="#bebebf">
    <path d="M62.24,67.33l-30.36.03v-.72h30.38c.15.31-.02.51-.02.69Z"/>
    <path d="M111.86,10.28l-30.12.03v-.72h30.14c.15.31-.02.51-.02.69Z"/>
  </g>
</svg>
